<svg width="64" height="58" viewBox="0 0 64 58" fill="none" xmlns="http://www.w3.org/2000/svg">
<path d="M31.9689 5.18926L36.9469 10.1673L9.79404 37.3202L17.9852 45.5113L13.4597 50.0368L0.290521 36.8676L31.9689 5.18926ZM37.473 19.7443L32.2687 14.54L36.7942 10.0146L52.1808 25.4012L47.6554 29.9267L42.4511 24.7224L15.2982 51.8753L10.3201 46.8972L37.473 19.7443Z" fill="#473285"/>
<path d="M32.1058 5.18926L27.1278 10.1673L54.2807 37.3202L46.0895 45.5113L50.615 50.0368L63.7842 36.8676L32.1058 5.18926ZM26.6017 19.7443L31.806 14.54L27.2805 10.0146L11.8939 25.4012L16.4193 29.9267L21.6236 24.7224L48.7766 51.8753L53.7546 46.8972L26.6017 19.7443Z" fill="#473285"/>
<mask id="path-4-outside-1_22_6" maskUnits="userSpaceOnUse" x="-1.56493" y="-1.80761" width="55.8614" height="55.8614" fill="black">
<rect fill="white" x="-1.56493" y="-1.80761" width="55.8614" height="55.8614"/>
<path d="M31.9689 0.189255L36.9469 5.16729L9.79404 32.3202L17.9852 40.5113L13.4597 45.0368L0.290521 31.8676L31.9689 0.189255ZM37.473 14.7443L32.2687 9.54004L36.7942 5.01455L52.1808 20.4012L47.6554 24.9267L42.4511 19.7224L15.2982 46.8753L10.3201 41.8972L37.473 14.7443Z"/>
</mask>
<path d="M31.9689 0.189255L36.9469 5.16729L9.79404 32.3202L17.9852 40.5113L13.4597 45.0368L0.290521 31.8676L31.9689 0.189255ZM37.473 14.7443L32.2687 9.54004L36.7942 5.01455L52.1808 20.4012L47.6554 24.9267L42.4511 19.7224L15.2982 46.8753L10.3201 41.8972L37.473 14.7443Z" fill="#664C9F"/>
<path d="M31.9689 0.189255L32.676 -0.517851L31.9689 -1.22496L31.2618 -0.517851L31.9689 0.189255ZM36.9469 5.16729L37.654 5.87439L38.3612 5.16729L37.654 4.46018L36.9469 5.16729ZM9.79404 32.3202L9.08693 31.6131L8.37982 32.3202L9.08693 33.0273L9.79404 32.3202ZM17.9852 40.5113L18.6923 41.2184L19.3994 40.5113L18.6923 39.8042L17.9852 40.5113ZM13.4597 45.0368L12.7526 45.7439L13.4597 46.451L14.1668 45.7439L13.4597 45.0368ZM0.290521 31.8676L-0.416586 31.1605L-1.12369 31.8676L-0.416586 32.5747L0.290521 31.8676ZM31.2618 0.896362L36.2398 5.87439L37.654 4.46018L32.676 -0.517851L31.2618 0.896362ZM36.2398 4.46018L9.08693 31.6131L10.5011 33.0273L37.654 5.87439L36.2398 4.46018ZM9.08693 33.0273L17.2781 41.2184L18.6923 39.8042L10.5011 31.6131L9.08693 33.0273ZM17.2781 39.8042L12.7526 44.3297L14.1668 45.7439L18.6923 41.2184L17.2781 39.8042ZM14.1668 44.3297L0.997628 31.1605L-0.416586 32.5747L12.7526 45.7439L14.1668 44.3297ZM0.997628 32.5747L32.676 0.896362L31.2618 -0.517851L-0.416586 31.1605L0.997628 32.5747ZM37.473 14.7443L38.1801 15.4514L38.8872 14.7443L38.1801 14.0372L37.473 14.7443ZM32.2687 9.54004L31.5616 8.83293L30.8545 9.54004L31.5616 10.2471L32.2687 9.54004ZM36.7942 5.01455L37.5013 4.30745L36.7942 3.60034L36.0871 4.30745L36.7942 5.01455ZM52.1808 20.4012L52.888 21.1083L53.5951 20.4012L52.888 19.6941L52.1808 20.4012ZM47.6554 24.9267L46.9483 25.6338L47.6554 26.3409L48.3625 25.6338L47.6554 24.9267ZM42.4511 19.7224L43.1582 19.0153L42.4511 18.3082L41.744 19.0153L42.4511 19.7224ZM15.2982 46.8753L14.591 47.5824L15.2982 48.2895L16.0053 47.5824L15.2982 46.8753ZM10.3201 41.8972L9.61302 41.1901L8.90591 41.8972L9.61302 42.6044L10.3201 41.8972ZM38.1801 14.0372L32.9758 8.83293L31.5616 10.2471L36.7659 15.4514L38.1801 14.0372ZM32.9758 10.2471L37.5013 5.72166L36.0871 4.30745L31.5616 8.83293L32.9758 10.2471ZM36.0871 5.72166L51.4737 21.1083L52.888 19.6941L37.5013 4.30745L36.0871 5.72166ZM51.4737 19.6941L46.9483 24.2196L48.3625 25.6338L52.888 21.1083L51.4737 19.6941ZM48.3625 24.2196L43.1582 19.0153L41.744 20.4295L46.9483 25.6338L48.3625 24.2196ZM41.744 19.0153L14.591 46.1682L16.0053 47.5824L43.1582 20.4295L41.744 19.0153ZM16.0053 46.1682L11.0272 41.1901L9.61302 42.6044L14.591 47.5824L16.0053 46.1682ZM11.0272 42.6044L38.1801 15.4514L36.7659 14.0372L9.61302 41.1901L11.0272 42.6044Z" fill="#473285" mask="url(#path-4-outside-1_22_6)"/>
<mask id="path-6-outside-2_22_6" maskUnits="userSpaceOnUse" x="9.7782" y="-1.80761" width="55.8614" height="55.8614" fill="black">
<rect fill="white" x="9.7782" y="-1.80761" width="55.8614" height="55.8614"/>
<path d="M32.1058 0.189255L27.1278 5.16729L54.2807 32.3202L46.0895 40.5113L50.615 45.0368L63.7842 31.8676L32.1058 0.189255ZM26.6017 14.7443L31.806 9.54004L27.2805 5.01455L11.8939 20.4012L16.4193 24.9267L21.6236 19.7224L48.7766 46.8753L53.7546 41.8972L26.6017 14.7443Z"/>
</mask>
<path d="M32.1058 0.189255L27.1278 5.16729L54.2807 32.3202L46.0895 40.5113L50.615 45.0368L63.7842 31.8676L32.1058 0.189255ZM26.6017 14.7443L31.806 9.54004L27.2805 5.01455L11.8939 20.4012L16.4193 24.9267L21.6236 19.7224L48.7766 46.8753L53.7546 41.8972L26.6017 14.7443Z" fill="#664C9F"/>
<path d="M32.1058 0.189255L31.3987 -0.517851L32.1058 -1.22496L32.8129 -0.517851L32.1058 0.189255ZM27.1278 5.16729L26.4207 5.87439L25.7136 5.16729L26.4207 4.46018L27.1278 5.16729ZM54.2807 32.3202L54.9878 31.6131L55.6949 32.3202L54.9878 33.0273L54.2807 32.3202ZM46.0895 40.5113L45.3824 41.2184L44.6753 40.5113L45.3824 39.8042L46.0895 40.5113ZM50.615 45.0368L51.3221 45.7439L50.615 46.451L49.9079 45.7439L50.615 45.0368ZM63.7842 31.8676L64.4913 31.1605L65.1984 31.8676L64.4913 32.5747L63.7842 31.8676ZM32.8129 0.896362L27.8349 5.87439L26.4207 4.46018L31.3987 -0.517851L32.8129 0.896362ZM27.8349 4.46018L54.9878 31.6131L53.5736 33.0273L26.4207 5.87439L27.8349 4.46018ZM54.9878 33.0273L46.7967 41.2184L45.3824 39.8042L53.5736 31.6131L54.9878 33.0273ZM46.7967 39.8042L51.3221 44.3297L49.9079 45.7439L45.3824 41.2184L46.7967 39.8042ZM49.9079 44.3297L63.0771 31.1605L64.4913 32.5747L51.3221 45.7439L49.9079 44.3297ZM63.0771 32.5747L31.3987 0.896362L32.8129 -0.517851L64.4913 31.1605L63.0771 32.5747ZM26.6017 14.7443L25.8946 15.4514L25.1875 14.7443L25.8946 14.0372L26.6017 14.7443ZM31.806 9.54004L32.5131 8.83293L33.2202 9.54004L32.5131 10.2471L31.806 9.54004ZM27.2805 5.01455L26.5734 4.30745L27.2805 3.60034L27.9876 4.30745L27.2805 5.01455ZM11.8939 20.4012L11.1868 21.1083L10.4796 20.4012L11.1868 19.6941L11.8939 20.4012ZM16.4193 24.9267L17.1265 25.6338L16.4193 26.3409L15.7122 25.6338L16.4193 24.9267ZM21.6236 19.7224L20.9165 19.0153L21.6236 18.3082L22.3308 19.0153L21.6236 19.7224ZM48.7766 46.8753L49.4837 47.5824L48.7766 48.2895L48.0694 47.5824L48.7766 46.8753ZM53.7546 41.8972L54.4617 41.1901L55.1688 41.8972L54.4617 42.6044L53.7546 41.8972ZM25.8946 14.0372L31.0989 8.83293L32.5131 10.2471L27.3088 15.4514L25.8946 14.0372ZM31.0989 10.2471L26.5734 5.72166L27.9876 4.30745L32.5131 8.83293L31.0989 10.2471ZM27.9876 5.72166L12.601 21.1083L11.1868 19.6941L26.5734 4.30745L27.9876 5.72166ZM12.601 19.6941L17.1265 24.2196L15.7122 25.6338L11.1868 21.1083L12.601 19.6941ZM15.7122 24.2196L20.9165 19.0153L22.3308 20.4295L17.1265 25.6338L15.7122 24.2196ZM22.3308 19.0153L49.4837 46.1682L48.0694 47.5824L20.9165 20.4295L22.3308 19.0153ZM48.0694 46.1682L53.0475 41.1901L54.4617 42.6044L49.4837 47.5824L48.0694 46.1682ZM53.0475 42.6044L25.8946 15.4514L27.3088 14.0372L54.4617 41.1901L53.0475 42.6044Z" fill="#473285" mask="url(#path-6-outside-2_22_6)"/>
</svg>
